# xmcd
#
# Track frame offsets: 
#        150
#        17380
#        33867
#        52625
#
# Disc length: 920 seconds
#
# Revision: 0
# Processed by: cddbd v1.5.1PL0 Copyright (c) Steve Scherf et al.
# Submitted via: ExactAudioCopy v0.95b3
#
DISCID=1a039604
DTITLE=Smile - Obvious
DYEAR=1992
DGENRE=Blues
TTITLE0=Obvious
TTITLE1=Baby's Gone
TTITLE2=The Best Little Warehouse
TTITLE3=Another Year
EXTD=
EXTT0=
EXTT1=
EXTT2=
EXTT3=
PLAYORDER=
